<svg xmlns="http://www.w3.org/2000/svg" viewBox="0 0 22 22" id="appointment" width="100%" height="100%"> <path fill='#A9A9A9' d="M18.1463 3.85568C16.2379 1.94838 13.7013 0.897568 11.0019 0.897568C8.3035 0.897568 5.76682 1.94838 3.8592 3.85588C1.95081 5.76403 0.899872 8.3012 0.899872 11C0.899387 13.6992 1.9496 16.2359 3.85762 18.1451C5.76504 20.0516 8.30196 21.1024 11.0002 21.1024C13.6996 21.1024 16.2374 20.0508 18.1463 18.1431C22.0844 14.2047 22.085 7.79575 18.1463 3.85568ZM15.7549 14.6251C15.5225 15.0276 15.0864 15.1655 14.684 14.9333L11.2113 12.8286C11.0942 12.7611 10.9023 12.666 10.8324 12.5609C10.5799 12.416 10.1918 12.1542 10.1918 11.8419V5.94886C10.1918 5.48411 10.5689 5.10693 11.0336 5.10693C11.4983 5.10693 11.8756 5.48407 11.8756 5.94886V11.4563L15.3676 13.4759C15.7709 13.7083 15.9872 14.2226 15.7549 14.6251Z"></path> </svg>