<svg xmlns="http://www.w3.org/2000/svg" viewBox="0 0 22 22" id="homepage" width="100%" height="100%"> <path fill='#48AFF9' d="M4.39619 1.9443H17.559C17.7961 1.9443 17.9947 1.74576 17.9947 1.50071C17.9947 1.2629 17.7996 1.05713 17.559 1.05713H4.39619C4.15913 1.05713 3.9607 1.25566 3.9607 1.50071C3.9607 1.73853 4.15572 1.9443 4.39619 1.9443ZM20.7314 8.17949C20.7177 8.13786 20.7022 8.09539 20.6851 8.05387L18.2842 2.38767H3.67136L1.2712 8.05302C1.23352 8.14138 1.20616 8.22973 1.18987 8.31724C1.10168 8.5614 1.05675 8.81908 1.05713 9.07868C1.05713 10.3018 2.04042 11.2964 3.24992 11.2964C3.69617 11.2964 4.12187 11.162 4.48253 10.9135C4.84484 11.1636 5.27486 11.2972 5.71513 11.2964C6.20145 11.2967 6.67381 11.1338 7.05653 10.8338C7.80861 11.3856 8.91954 11.3786 9.66225 10.8147C10.4143 11.3864 11.5415 11.3864 12.2936 10.8147C13.0456 11.3864 14.1728 11.3864 14.9249 10.8147C15.6496 11.3657 16.7203 11.3907 17.4682 10.8796C17.8336 11.1364 18.2696 11.2738 18.7162 11.2729C19.9256 11.2729 20.909 10.2784 20.909 9.05516C20.9092 8.7543 20.8488 8.45648 20.7314 8.17949ZM18.716 12.0891C18.2693 12.0901 17.8334 11.9526 17.468 11.6958C16.7202 12.2068 15.6494 12.1819 14.9247 11.6309C14.1727 12.2027 13.0455 12.2027 12.2934 11.6309C11.5413 12.2027 10.4141 12.2027 9.66204 11.6309C8.91932 12.1947 7.80839 12.2017 7.05631 11.6499C6.67359 11.95 6.20123 12.1128 5.71492 12.1124C5.27467 12.1132 4.84465 11.9797 4.48231 11.7296C4.11998 11.9797 3.68996 12.1133 3.24971 12.1124C2.86904 12.1124 2.51094 12.0136 2.19861 11.8405V19.2492C2.19861 20.1234 2.76418 20.8321 3.46176 20.8321H18.4778C19.1754 20.8321 19.7409 20.1234 19.7409 19.2492V11.8307C19.4259 12.0004 19.0737 12.0892 18.716 12.0891Z"></path> </svg>