<svg xmlns="http://www.w3.org/2000/svg" viewBox="0 0 25 25" id="student-work" width="100%" height="100%"> <path fill='#A9A9A9' d="M11.6724 8.00537C11.4282 7.771 11.1401 7.58545 10.8105 7.44629C10.4785 7.30713 10.127 7.23633 9.75586 7.23633C9.37256 7.23633 9.01611 7.30469 8.68408 7.44629C8.35205 7.58545 8.06641 7.771 7.82227 8.00537C7.57812 8.23975 7.38281 8.51563 7.23877 8.83301C7.09228 9.15039 7.02148 9.48731 7.02148 9.84375C7.02148 10.2002 7.09473 10.5371 7.23877 10.8545C7.38525 11.1719 7.57812 11.4502 7.82227 11.6895C8.06641 11.9287 8.35449 12.1191 8.68408 12.2583C9.01611 12.3975 9.37256 12.4683 9.75586 12.4683C10.127 12.4683 10.4785 12.3975 10.8105 12.2583C11.1426 12.1191 11.4282 11.9287 11.6724 11.6895C11.9165 11.4502 12.1118 11.1719 12.2559 10.8545C12.3999 10.5371 12.4731 10.2002 12.4731 9.84375C12.4731 9.48731 12.3999 9.15039 12.2559 8.83301C12.1118 8.51318 11.9165 8.23731 11.6724 8.00537ZM21.2256 3.04199H3.72314C2.5293 3.04199 1.5625 3.96973 1.5625 5.11475V19.7998C1.5625 20.9448 2.5293 21.8726 3.72314 21.8726H21.2231C22.417 21.8726 23.3838 20.9448 23.3838 19.7998V5.11475C23.3862 3.96973 22.4194 3.04199 21.2256 3.04199ZM21.2085 16.9605C20.9766 16.4478 20.7056 15.9253 20.3979 15.3906C20.0903 14.856 19.7534 14.3726 19.3872 13.938C19.021 13.5034 18.623 13.1494 18.1934 12.876C17.7637 12.6025 17.3169 12.4658 16.8506 12.4658C16.3037 12.4658 15.8398 12.5684 15.4565 12.7734C15.0732 12.981 14.7412 13.2373 14.4629 13.5498C14.1846 13.8623 13.9331 14.1968 13.7134 14.5532C13.4937 14.9097 13.2715 15.2441 13.0518 15.5566C12.832 15.8691 12.5903 16.1279 12.3291 16.333C12.0679 16.5381 11.7578 16.6406 11.3965 16.6406C11.0352 16.6406 10.7275 16.6162 10.4736 16.5649C10.2173 16.5137 9.98779 16.4502 9.78516 16.3721C9.58252 16.2939 9.39209 16.2085 9.21875 16.1133C9.04541 16.0181 8.85498 15.9326 8.65234 15.8545C8.44971 15.7764 8.21777 15.7129 7.9541 15.6616C7.69287 15.6104 7.38281 15.5859 7.02148 15.5859C6.71875 15.5859 6.4209 15.6616 6.12305 15.8105C5.82764 15.9619 5.53955 16.1523 5.26123 16.3867C4.98291 16.6211 4.71436 16.8823 4.46045 17.1729C4.2041 17.4634 3.97217 17.7515 3.76221 18.042V6.05469C3.76221 5.54199 4.19678 5.12695 4.73145 5.12695H20.2393C20.7739 5.12695 21.2085 5.54199 21.2085 6.05469V16.9605Z"></path> </svg>