<svg xmlns="http://www.w3.org/2000/svg" viewBox="0 0 22 22" id="timetable" width="100%" height="100%"> <path fill='#A9A9A9' d="M16.654 8.55429H5.34579C5.13104 8.55423 4.92392 8.63389 4.76456 8.77785C4.60521 8.92181 4.50498 9.1198 4.4833 9.33345V9.45428C4.48343 9.67034 4.56426 9.87855 4.70994 10.0381C4.85562 10.1977 5.05564 10.297 5.27079 10.3168H16.654C16.8703 10.3176 17.0791 10.2371 17.2388 10.0912C17.3986 9.94536 17.4977 9.74479 17.5165 9.52928V9.40845C17.5122 9.18183 17.4197 8.96583 17.2586 8.80633C17.0975 8.64684 16.8807 8.55642 16.654 8.55429ZM12.3041 13.8876H5.34579C5.12908 13.8878 4.92032 13.9692 4.76066 14.1158C4.60101 14.2623 4.50205 14.4633 4.4833 14.6792V14.8001C4.48343 15.0161 4.56426 15.2243 4.70994 15.3839C4.85562 15.5434 5.05564 15.6428 5.27079 15.6626H12.3041C12.5206 15.6625 12.7293 15.5818 12.8895 15.4362C13.0497 15.2906 13.15 15.0906 13.1707 14.8751V14.7501C13.1675 14.5216 13.075 14.3035 12.913 14.1423C12.7511 13.9812 12.5325 13.8897 12.3041 13.8876ZM6.43744 1.0002C6.57971 1.0002 6.72058 1.02822 6.85201 1.08266C6.98345 1.13711 7.10287 1.2169 7.20347 1.3175C7.30406 1.41809 7.38386 1.53752 7.4383 1.66895C7.49275 1.80039 7.52077 1.94126 7.52077 2.08352V3.22101H14.479V2.08352C14.479 1.93949 14.5077 1.7969 14.5634 1.66408C14.6192 1.53127 14.7008 1.41091 14.8037 1.31004C14.9065 1.20916 15.0284 1.12981 15.1622 1.07661C15.2961 1.02341 15.4392 0.99743 15.5832 1.0002C15.8709 1.0002 16.1469 1.1142 16.3507 1.31724C16.5545 1.52029 16.6696 1.79583 16.6707 2.08352V3.22101H19.2831C19.7403 3.22649 20.1769 3.41197 20.4983 3.73722C20.8196 4.06246 20.9998 4.50127 20.9998 4.95849V19.2625C20.9998 19.7233 20.8167 20.1653 20.4909 20.4911C20.1651 20.8169 19.7231 21 19.2623 21H2.73748C2.27667 21 1.83474 20.8169 1.5089 20.4911C1.18306 20.1653 1 19.7233 1 19.2625V4.95849C1 4.49768 1.18306 4.05575 1.5089 3.72991C1.83474 3.40407 2.27667 3.22101 2.73748 3.22101H5.34579V2.08352C5.34685 1.79869 5.45961 1.52564 5.65985 1.32307C5.86009 1.12049 6.13181 1.00456 6.41661 1.0002H6.43744Z"></path> </svg>