<svg xmlns="http://www.w3.org/2000/svg" viewBox="0 0 16 16" id="calendar-today" width="100%" height="100%"> <path fill='#999999' d="M11.775 3.475H12.15C12.45 3.475 12.675 3.25 12.675 2.975V0.9C12.675 0.6 12.45 0.375 12.15 0.375H11.775C11.475 0.375 11.25 0.6 11.25 0.9V2.95C11.25 3.25 11.475 3.475 11.775 3.475ZM3.92502 3.475H4.30002C4.60002 3.475 4.82502 3.25 4.82502 2.975V0.9C4.82502 0.6 4.60002 0.375 4.30002 0.375H3.92502C3.62502 0.375 3.40002 0.6 3.40002 0.9V2.95C3.40002 3.25 3.62502 3.475 3.92502 3.475Z"></path> <path fill='#999999' d="M14.5 2.10001H13.425V2.97501C13.425 3.62501 12.9 4.17501 12.175 4.17501H11.8C11.125 4.17501 10.55 3.65001 10.55 2.97501V2.10001H5.55001V2.97501C5.55001 3.62501 5.02501 4.17501 4.30001 4.17501H3.92501C3.25001 4.17501 2.67501 3.65001 2.67501 2.97501V2.10001H1.65001C1.05001 2.10001 0.575012 2.55001 0.575012 3.15001V14.575C0.575012 15.175 1.05001 15.625 1.65001 15.625H14.475C15.075 15.625 15.55 15.175 15.575 14.575V3.15001C15.575 2.55001 15.1 2.10001 14.5 2.10001ZM1.65001 14.575V5.55001H14.475C14.475 5.55001 14.475 14.575 14.5 14.575H1.65001Z"></path> <path fill='#999999' d="M7.82499 8.57501L7.04999 9.10001C7.27499 9.35001 7.57499 9.75001 7.99999 10.275L8.84998 9.72501C8.54998 9.37501 8.22498 9.00001 7.82499 8.57501Z"></path> <path d="M8.64999 7.04999L8.87499 6.82499V6.79999H7.49999C6.69999 7.87499 5.64999 8.69999 4.42499 9.22499C4.59999 9.42499 4.82499 9.67499 5.07499 10.075C6.32499 9.44999 7.29999 8.67499 8.02499 7.74999C8.69999 8.67499 9.62499 9.42499 10.85 9.99999C11.075 9.69999 11.275 9.44999 11.5 9.17499C10.3 8.69999 9.34999 7.97499 8.64999 7.04999ZM5.29999 11.2H9.14999C8.67499 11.875 8.17499 12.475 7.67499 13.025L8.62499 13.55C9.39999 12.675 10.025 11.85 10.55 11.125V10.275H5.29999V11.2Z" fill='#999999'></path> </svg>