<svg xmlns="http://www.w3.org/2000/svg" viewBox="0 0 100 100" id="new-timetable-holder" width="100%" height="100%"> <path d="M78.5986 22.1768V32.7998H11.3877V22.1768C11.3877 19.3398 13.6914 17.0361 16.5283 17.0361H25.2373V19.1689C25.2373 21.2812 26.96 23.0107 29.0791 23.0107H29.1816C31.2939 23.0107 33.0166 21.2812 33.0166 19.1689V17.0361H56.7031V19.1689C56.7031 21.2812 58.4326 23.0107 60.5449 23.0107C62.6572 23.0107 64.3867 21.2812 64.3867 19.1689V17.0361H73.458C76.3018 17.0361 78.5986 19.3398 78.5986 22.1768Z" fill="#48AFF9" fill-opacity="0.4"></path> <path d="M79.9932 34.1943H10V22.1768C10 18.5742 12.9326 15.6484 16.5283 15.6484H26.625V19.1689C26.625 20.5225 27.7256 21.6162 29.0723 21.6162H29.1748C30.5215 21.6162 31.6152 20.5156 31.6152 19.1689V15.6416H58.084V19.1689C58.084 20.5225 59.1846 21.6162 60.5313 21.6162C61.8848 21.6162 62.9785 20.5156 62.9785 19.1689V15.6416H73.4444C77.0469 15.6416 79.9727 18.5742 79.9727 22.1699V34.1943H79.9932ZM12.7822 31.4121H77.211V22.1768C77.211 20.1123 75.5293 18.4307 73.4649 18.4307H65.7813V19.1689C65.7813 22.0537 63.4365 24.3984 60.5518 24.3984C57.667 24.3984 55.3223 22.0537 55.3223 19.1689V18.4238H34.4111V19.1689C34.4111 22.0537 32.0664 24.3984 29.1817 24.3984H29.0791C26.1943 24.3984 23.8496 22.0537 23.8496 19.1689V18.4238H16.5352C14.4639 18.4307 12.7822 20.1123 12.7822 22.1768V31.4121Z" fill="#D7D7D7"></path> <path d="M73.3418 72.1543C72.5761 72.1543 71.9472 71.5322 71.9472 70.7598C71.9472 69.9941 72.5693 69.3652 73.3418 69.3652C75.4746 69.3652 77.2109 67.6289 77.2109 65.4961V34.1875H12.7822V65.4961C12.7822 67.6289 14.5186 69.3652 16.6514 69.3652C17.417 69.3652 18.0459 69.9873 18.0459 70.7598C18.0459 71.5254 17.4238 72.1543 16.6514 72.1543C12.9805 72.1543 10 69.1738 10 65.5029V32.7998C10 32.0342 10.6221 31.4053 11.3945 31.4053H78.6054C79.3711 31.4053 80 32.0273 80 32.7998V65.5029C79.9931 69.1738 77.0058 72.1543 73.3418 72.1543ZM33.0166 15.6416H56.7031V18.4238H33.0166V15.6416Z" fill="#D7D7D7"></path> <path d="M73.3418 80.2754H16.6514C12.9873 80.2754 10 77.2949 10 73.624V22.293C10 18.6289 12.9805 15.6416 16.6514 15.6416H25.4219V18.4238H16.6514C14.5186 18.4238 12.7822 20.1602 12.7822 22.2861V73.6172C12.7822 75.75 14.5186 77.4795 16.6514 77.4795H73.3487C75.4815 77.4795 77.2178 75.7432 77.2178 73.6172V22.293C77.2178 20.1602 75.4815 18.4307 73.3487 18.4307H64.5713V15.6416H73.3418C77.0059 15.6416 79.9932 18.6221 79.9932 22.293V73.624C79.9932 77.2881 77.0127 80.2754 73.3418 80.2754Z" fill="#D7D7D7"></path> <path d="M60.7979 72.1543H55.6982C54.9326 72.1543 54.3037 71.5322 54.3037 70.7598C54.3037 69.9941 54.9258 69.3652 55.6982 69.3652H60.7979C61.5635 69.3652 62.1924 69.9873 62.1924 70.7598C62.1855 71.5322 61.5635 72.1543 60.7979 72.1543Z" fill="#D7D7D7"></path> <path d="M73.3418 72.1543H66.2051C65.4394 72.1543 64.8105 71.5322 64.8105 70.7598C64.8105 69.9941 65.4326 69.3652 66.2051 69.3652H73.3418C75.4746 69.3652 77.2109 67.6289 77.2109 65.4961V34.1875H12.7822V65.4961C12.7822 67.6289 14.5186 69.3652 16.6514 69.3652H49.8672C50.6328 69.3652 51.2617 69.9873 51.2617 70.7598C51.2617 71.5254 50.6396 72.1543 49.8672 72.1543H16.6514C12.9805 72.1543 10 69.1738 10 65.5029V32.7998C10 32.0342 10.6221 31.4053 11.3945 31.4053H78.6054C79.3711 31.4053 80 32.0273 80 32.7998V65.5029C79.9931 69.1738 77.0058 72.1543 73.3418 72.1543Z" fill="#D7D7D7"></path> <path d="M65.7129 47.4902H23.9111C23.1455 47.4902 22.5166 46.8682 22.5166 46.0957C22.5166 45.3301 23.1387 44.7012 23.9111 44.7012H65.7129C66.4785 44.7012 67.1074 45.3232 67.1074 46.0957C67.1074 46.8682 66.4854 47.4902 65.7129 47.4902Z" fill="#D7D7D7"></path> <path d="M65.7129 58.8311H23.9111C23.1455 58.8311 22.5166 58.209 22.5166 57.4365C22.5166 56.6709 23.1387 56.042 23.9111 56.042H65.7129C66.4785 56.042 67.1074 56.6641 67.1074 57.4365C67.1074 58.209 66.4854 58.8311 65.7129 58.8311ZM34.3291 17.0361H31.5469V16.2295C31.5469 14.876 30.4531 13.7822 29.1064 13.7822H29.0039C27.6504 13.7822 26.5566 14.8828 26.5566 16.2295V17.0361H23.7744V16.2295C23.7744 13.3447 26.1191 11 29.0039 11H29.1064C31.9912 11 34.3359 13.3447 34.3359 16.2295V17.0361H34.3291ZM65.6992 17.0361H62.917V16.2295C62.917 15.5801 62.6572 14.9648 62.1924 14.5C61.7275 14.0352 61.1191 13.7822 60.4697 13.7822C59.1162 13.7822 58.0225 14.8828 58.0225 16.2295V17.0361H55.2334V16.2295C55.2334 13.3447 57.5781 11 60.4629 11C61.8574 11 63.1699 11.5469 64.1543 12.5313C65.1455 13.5225 65.6924 14.835 65.6924 16.2295V17.0361H65.6992Z" fill="#D7D7D7"></path> <circle cx="72" cy="71" r="16.6" fill="#FFFFFF" stroke="#D7D7D7" stroke-width="2.8"></circle> <path d="M64.7971 72.0423C64.7076 71.8678 64.5745 71.6056 64.3977 71.2556C64.2209 70.9504 64.0884 70.7105 64 70.5361C66.0388 69.6495 67.976 68.5508 69.7786 67.2586L70.9072 68.6357C68.9376 69.8846 66.8976 71.022 64.7971 72.0423ZM66.2571 73.0185V71.3797H77.6766V73.0185H72.8957V76.4904H79.4782V78H64.3977V76.4904H71.038V73.0185H66.2571ZM64.464 68.2415V64.9004H71.3032L70.7049 63.1979L72.6968 63C72.9341 63.6213 73.1338 64.2558 73.2951 64.9004H79.4782V68.2415H77.6766V66.5391H66.2571V68.2415H64.464ZM79.0703 72.0423C77.0761 70.8201 75.0621 69.6846 73.0283 68.6357L74.0242 67.2586C74.3335 67.4342 74.8208 67.6964 75.4859 68.0453C77.5662 69.1378 79.0709 69.968 80 70.5361L79.0703 72.0423Z" fill="#D7D7D7"></path> </svg>