<svg xmlns="http://www.w3.org/2000/svg" viewBox="0 0 22 22" id="wechat-icon" width="100%" height="100%"> <path fill='#333333' d="M10.7388 7.74587C11.2498 7.74587 11.5844 7.40671 11.5844 6.90025C11.5844 6.3915 11.2498 6.05692 10.7388 6.05692C10.2323 6.05692 9.72813 6.38921 9.72584 6.90025C9.72584 7.409 10.2323 7.74587 10.7388 7.74587ZM6.01334 6.05463C5.50458 6.05463 4.99583 6.38921 4.99583 6.89796C4.99583 7.40671 5.50688 7.74358 6.01334 7.74358C6.52209 7.74358 6.85667 7.40671 6.85667 6.89796C6.85667 6.38921 6.51979 6.05463 6.01334 6.05463Z"></path> <path fill='#333333' d="M20.4738 15.6819C20.9985 14.8661 21.2644 14.0159 21.2644 13.1496C21.2644 12.3751 21.0788 11.6211 20.7144 10.9107C20.3706 10.2438 19.8871 9.6434 19.2729 9.12777C18.6725 8.62361 17.9827 8.22715 17.2219 7.94757C16.7223 7.76423 16.209 7.64048 15.6865 7.57402C15.3267 6.15548 14.3985 4.86757 13.0533 3.93486C11.6852 2.97923 9.96188 2.45215 8.20646 2.45215C6.23104 2.45215 4.37021 3.10527 2.96542 4.29236C1.51938 5.51382 0.721878 7.16152 0.721878 8.9284C0.721878 9.96652 0.99917 10.9451 1.54688 11.8411C1.97084 12.5355 2.5575 13.1794 3.29313 13.7592L2.2275 16.9676L5.94688 15.1044C6.00188 15.1159 6.05688 15.1274 6.10959 15.1365C6.79021 15.274 7.43188 15.4069 8.20646 15.4069C8.41042 15.4069 8.62354 15.3978 8.84125 15.3817C9.17125 16.0555 9.64334 16.6582 10.2415 17.1715C11.4538 18.2119 13.0717 18.7826 14.795 18.7826C15.4642 18.7826 16.1219 18.6405 16.72 18.4915L19.8894 20.2309L19.0094 17.3021C19.6144 16.8003 20.1048 16.2549 20.4738 15.6819ZM6.40292 13.7019C6.26771 13.6744 6.12792 13.6469 5.98354 13.6172L5.73834 13.569L4.73688 14.0709L5.02563 13.2024L4.57875 12.8884C2.99292 11.7792 2.18854 10.4478 2.18854 8.9284C2.18854 7.59923 2.80042 6.35027 3.91188 5.41298C5.05084 4.45048 6.57709 3.91882 8.20646 3.91882C9.66396 3.91882 11.0894 4.35194 12.2215 5.13798C13.145 5.77965 13.8142 6.62069 14.1488 7.54423C12.6706 7.67027 11.3025 8.22257 10.2415 9.13236C9.64104 9.64798 9.17125 10.2507 8.83896 10.9244C8.49292 11.628 8.31875 12.3774 8.31875 13.1519C8.31875 13.4178 8.33938 13.679 8.38063 13.938C8.32104 13.9403 8.26146 13.9403 8.20417 13.9403C7.57854 13.9403 7.03313 13.8303 6.40292 13.7019ZM17.726 16.4542L17.3158 16.7613L17.4556 17.2242L16.9217 16.9309L16.6421 17.0019C16.0256 17.1578 15.3885 17.3182 14.795 17.3182C13.42 17.3182 12.1413 16.8713 11.1948 16.0601C10.285 15.2809 9.78542 14.2474 9.78542 13.1519C9.78542 12.0588 10.2873 11.0276 11.1971 10.2461C12.1435 9.43257 13.4223 8.98569 14.795 8.98569C16.0852 8.98569 17.3731 9.44632 18.3288 10.2507C19.2775 11.0482 19.8 12.0771 19.8 13.1519C19.8 13.7294 19.6121 14.3138 19.2431 14.889C18.8879 15.439 18.3769 15.9661 17.726 16.4542Z"></path> <path fill='#333333' d="M12.9342 10.9541C12.5996 10.9541 12.2581 11.2933 12.2581 11.6301C12.2581 11.9716 12.5973 12.3062 12.9342 12.3062C13.4475 12.3062 13.7798 11.9739 13.7798 11.6301C13.7798 11.2933 13.4475 10.9541 12.9342 10.9541ZM16.649 10.9541C16.3167 10.9541 15.9775 11.2933 15.9775 11.6301C15.9775 11.9716 16.3144 12.3062 16.649 12.3062C17.1577 12.3062 17.4946 11.9739 17.4946 11.6301C17.4946 11.2933 17.1554 10.9541 16.649 10.9541Z"></path> </svg>