<svg xmlns="http://www.w3.org/2000/svg" viewBox="0 0 32 16" id="notification-icon" width="100%" height="100%"> <path fill='#48AFF9' d="M3.07012 4.20704H5.46071L3.65365 7.66022C3.26118 8.4414 2.72565 8.83199 2.04894 8.83199H0.470589L0.730353 6.83199H1.41741C1.71953 6.83199 1.95953 6.62869 2.13741 6.2221L3.07012 4.20704ZM3.51624 1.25363H12.6569C13.0626 1.25363 13.3064 1.42022 13.3882 1.7534L14.0188 5.69128C14.1252 5.99246 14.4132 6.14399 14.8819 6.14399H15.2094L14.9506 8.14399H13.4494C12.5224 8.14399 11.9671 7.76375 11.7845 7.00328L11.456 3.7534C11.4089 3.55575 11.2348 3.45693 10.9327 3.45693H3.23012L3.51624 1.25363ZM6.39247 5.5821H8.95435L3.83435 13.2536H10.9751C11.0899 13.2536 11.1576 13.1699 11.1793 13.0033L10.7576 9.62822H12.9299L13.6282 13.519C13.5661 13.999 13.36 14.4207 13.0108 14.7849C12.6626 15.056 12.3595 15.1915 12.0988 15.1915H0.958118L1.12847 13.8786C1.16988 13.5558 1.32612 13.1915 1.59906 12.7849L6.39247 5.5821ZM19.1567 1.25363H21.5784L21.0014 2.20704H23.6583L23.8212 0.941162H26.1176L25.9539 2.20704H31.2038L30.9365 4.26916H25.6866L25.4136 6.37834H31.1783L30.9186 8.37834H16.528L16.7878 6.37834H23.1162L23.3892 4.2701H19.7336L19.4748 4.70587C19.2762 5.02869 19.0212 5.19057 18.7087 5.19057H17.0682L17.3271 3.19057H17.7176C17.8739 3.19057 18.0179 3.0861 18.1487 2.8781L19.1567 1.25269V1.25363ZM17.0146 9.45693H30.0922L29.5087 13.9567C29.3901 14.8734 28.7633 15.3318 27.6273 15.3318H16.2522L17.0146 9.45693ZM26.6833 13.4569C27.0579 13.4569 27.2649 13.3063 27.3045 13.0033L27.5209 11.3318H19.0372L18.7614 13.4569H26.6833Z"></path> </svg>