<svg xmlns="http://www.w3.org/2000/svg" viewBox="0 0 12 20" id="index-goback" width="100%" height="100%"> <path fill="#48AFF9" d="M9.97072 0.0165229C9.68689 0.0163208 9.40627 0.0765377 9.14742 0.193185C8.88856 0.309833 8.6574 0.480251 8.46922 0.693153L0.673502 8.50466C0.278585 8.8564 0.0380607 9.35003 0.00414182 9.87838C-0.0297771 10.4067 0.145648 10.9272 0.492334 11.3267L8.53235 19.3775C8.7233 19.5778 8.95343 19.7364 9.20834 19.8435C9.46326 19.9505 9.73748 20.0038 10.0139 19.9998C10.2902 19.9958 10.5628 19.9348 10.8146 19.8204C11.0663 19.7061 11.2918 19.541 11.477 19.3353C11.6622 19.1297 11.803 18.888 11.8907 18.6253C11.9784 18.3627 12.011 18.0847 11.9866 17.8088C11.9622 17.5329 11.8812 17.2651 11.7488 17.0219C11.6164 16.7788 11.4353 16.5657 11.2169 16.3959L4.84037 10.0065L11.2581 3.57571C11.5807 3.31291 11.8141 2.95629 11.9259 2.55502C12.0378 2.15374 12.0226 1.72758 11.8826 1.33529C11.7426 0.942996 11.4845 0.603899 11.1441 0.364744C10.8036 0.125587 10.3975 -0.00184295 9.9817 1.86372e-05L9.97072 0.0165229Z"></path> </svg>