<svg xmlns="http://www.w3.org/2000/svg" viewBox="0 0 20 20" id="reset" width="100%" height="100%"> <path fill='#48AFF9' d="M9.67896 16.3814C9.67896 16.4666 9.71281 16.5483 9.77306 16.6086C9.83332 16.6688 9.91504 16.7027 10.0003 16.7027C10.0855 16.7027 10.1672 16.6688 10.2274 16.6086C10.2877 16.5483 10.3216 16.4666 10.3216 16.3814C10.3216 16.2961 10.2877 16.2144 10.2274 16.1542C10.1672 16.0939 10.0855 16.0601 10.0003 16.0601C9.91504 16.0601 9.83332 16.0939 9.77306 16.1542C9.71281 16.2144 9.67896 16.2961 9.67896 16.3814Z"></path> <path fill='#48AFF9' d="M9.99997 16.847C7.12564 16.8437 4.56682 15.0298 3.61366 12.3191C3.53272 12.0531 3.67643 11.769 3.94074 11.6781C4.20339 11.5856 4.49248 11.7178 4.59655 11.9771C5.40269 14.2683 7.56835 15.8046 9.99997 15.8063C12.4349 15.8063 14.6022 14.2667 15.405 11.9688C15.4662 11.7937 15.6165 11.6632 15.7999 11.6286C15.9832 11.5939 16.1699 11.6599 16.2905 11.8004C16.4111 11.9408 16.4491 12.1357 16.3879 12.3108C15.4381 15.0265 12.876 16.8453 9.99997 16.847ZM15.9072 8.57085C15.6859 8.57085 15.4876 8.43044 15.415 8.22065C14.6204 5.90796 12.4465 4.35516 10.0016 4.35351C7.55679 4.35351 5.38121 5.90466 4.58664 8.21734C4.48422 8.4767 4.19679 8.60885 3.93413 8.51965C3.67148 8.42879 3.52446 8.14796 3.60375 7.88035C4.54039 5.14808 7.11077 3.3128 9.99997 3.31445C12.8892 3.31445 15.4596 5.14973 16.3978 7.88366C16.4524 8.04224 16.4276 8.21734 16.3301 8.35445C16.2327 8.48991 16.0741 8.57085 15.9072 8.57085Z"></path> <path fill='#48AFF9' d="M4.09262 5.44727C3.80519 5.44727 3.57227 5.68019 3.57227 5.96762V8.04903C3.57227 8.33647 3.80519 8.56939 4.09262 8.56939C4.38005 8.56939 4.61297 8.33647 4.61297 8.04903V5.96762C4.61297 5.82886 4.55846 5.69671 4.461 5.59924C4.36353 5.50178 4.23138 5.44727 4.09262 5.44727ZM15.9071 11.6106C15.7684 11.6106 15.6362 11.6651 15.5388 11.7625C15.4413 11.86 15.3868 11.9922 15.3868 12.1309V14.2123C15.3868 14.4998 15.6197 14.7327 15.9071 14.7327C16.1946 14.7327 16.4275 14.4998 16.4275 14.2123V12.1309C16.4275 11.8435 16.1946 11.6106 15.9071 11.6106Z"></path> </svg>