<svg xmlns="http://www.w3.org/2000/svg" viewBox="0 0 16 16" id="lesson-list" width="100%" height="100%"> <path d="M4.81824 4.43688H14.007C14.4435 4.43688 14.7953 4.08353 14.7953 3.65023C14.7953 3.21694 14.4403 2.86359 14.007 2.86359H4.81824C4.38175 2.86359 4.03 3.21694 4.03 3.65023C4.0284 4.08193 4.38175 4.43688 4.81824 4.43688ZM1.99302 7.20934C1.55653 7.20934 1.20477 7.5627 1.20477 7.99599C1.20477 8.42929 1.55972 8.78264 1.99302 8.78264C2.42952 8.78264 2.78127 8.42929 2.78127 7.99599C2.78127 7.78494 2.70133 7.58988 2.55263 7.44278C2.40713 7.29248 2.20727 7.20934 1.99302 7.20934ZM1.99302 11.5647C1.55653 11.5647 1.20477 11.918 1.20477 12.3513C1.20477 12.7862 1.55972 13.138 1.99302 13.138C2.42952 13.138 2.78127 12.7846 2.78127 12.3513C2.78127 12.1403 2.70133 11.9452 2.55263 11.7981C2.40713 11.6494 2.20727 11.5647 1.99302 11.5647ZM14.0086 7.21414H4.81824C4.38175 7.21414 4.03 7.56749 4.03 8.00239C4.03 8.43728 4.38335 8.78904 4.81824 8.78904H14.007C14.4435 8.78904 14.7953 8.43568 14.7953 8.00239C14.7969 7.56909 14.4419 7.21414 14.0086 7.21414ZM1.99302 2.85559C1.55653 2.85559 1.20477 3.20894 1.20477 3.64224C1.20477 4.07554 1.55972 4.42889 1.99302 4.42889C2.42952 4.42889 2.78127 4.07554 2.78127 3.64224C2.78607 3.20734 2.43111 2.85559 1.99302 2.85559ZM14.0086 11.5711H4.81824C4.38175 11.5711 4.03 11.9228 4.03 12.3577C4.03 12.7926 4.38495 13.1444 4.81824 13.1444H14.007C14.4435 13.1444 14.7953 12.791 14.7953 12.3577C14.7969 11.9228 14.4419 11.5711 14.0086 11.5711Z" fill='#333333'></path> </svg>