<svg xmlns="http://www.w3.org/2000/svg" viewBox="0 0 22 23" id="index-home" width="100%" height="100%"> <path fill="#48AFF9" fill-rule="evenodd" clip-rule="evenodd" d="M1.38733 12.4327C0.734182 11.5419 0.926813 10.2903 1.81758 9.63715L9.81769 3.77115C10.5216 3.25499 11.479 3.255 12.183 3.77117L20.1829 9.63716C21.0736 10.2903 21.2662 11.5419 20.6131 12.4327C19.9599 13.3234 18.7083 13.5161 17.8176 12.8629L11.0003 7.86408L4.18284 12.8629C3.29207 13.5161 2.04048 13.3234 1.38733 12.4327Z"></path> <path fill="#48AFF9" fill-rule="evenodd" clip-rule="evenodd" d="M6.95072 13.0141C8.04755 13.1446 8.83085 14.1396 8.70027 15.2365L8.25223 19H13.7478L13.2997 15.2365C13.1692 14.1396 13.9525 13.1446 15.0493 13.0141C16.1461 12.8835 17.1411 13.6668 17.2717 14.7636L17.986 20.7636C18.0536 21.3312 17.875 21.9006 17.4955 22.328C17.1159 22.7555 16.5716 23 16 23H6.00001C5.42839 23 4.88409 22.7555 4.50454 22.328C4.12499 21.9006 3.94646 21.3312 4.01403 20.7636L4.72832 14.7636C4.85889 13.6668 5.8539 12.8835 6.95072 13.0141Z"></path> </svg>