<svg xmlns="http://www.w3.org/2000/svg" viewBox="0 0 9 5" id="hamburger" width="100%" height="100%"> <path d="M1.06245 0.317392H7.93755C8.01977 0.316768 8.09887 0.348823 8.15747 0.406508C8.21606 0.464194 8.24934 0.542788 8.25 0.625008C8.24934 0.707229 8.21606 0.785823 8.15747 0.843508C8.09887 0.901194 8.01977 0.933249 7.93755 0.932625H1.06245C0.98023 0.933249 0.901127 0.901194 0.842534 0.843508C0.783942 0.785823 0.750658 0.707229 0.75 0.625008C0.750658 0.542788 0.783942 0.464194 0.842534 0.406508C0.901127 0.348823 0.98023 0.316768 1.06245 0.317392ZM1.06245 2.19239H7.93755C8.01977 2.19176 8.09887 2.22382 8.15747 2.28151C8.21606 2.33919 8.24934 2.41778 8.25 2.50001C8.24934 2.58223 8.21606 2.66082 8.15747 2.71851C8.09887 2.77619 8.01977 2.80825 7.93755 2.80762H1.06245C0.98023 2.80825 0.901127 2.77619 0.842534 2.71851C0.783942 2.66082 0.750658 2.58223 0.75 2.50001C0.750658 2.41778 0.783942 2.33919 0.842534 2.28151C0.901127 2.22382 0.98023 2.19176 1.06245 2.19239ZM1.06245 4.05274H7.93755C8.01977 4.05211 8.09887 4.08417 8.15747 4.14185C8.21606 4.19954 8.24934 4.27813 8.25 4.36035C8.24934 4.44257 8.21606 4.52117 8.15747 4.57885C8.09887 4.63654 8.01977 4.66859 7.93755 4.66797H1.06245C0.98023 4.66859 0.901127 4.63654 0.842534 4.57885C0.783942 4.52117 0.750658 4.44257 0.75 4.36035C0.750658 4.27813 0.783942 4.19954 0.842534 4.14185C0.901127 4.08417 0.98023 4.05211 1.06245 4.05274Z" fill='#D7D7D7'></path> </svg>