<svg xmlns="http://www.w3.org/2000/svg" viewBox="0 0 24 24" id="shop-location" width="16" height="16"> <path fill='#333333' fill-rule="evenodd" clip-rule="evenodd" d="M9.09235 18.5708C10.6544 20.1329 13.1871 20.1329 14.7492 18.5708L17.6082 15.7118C20.7493 12.5707 20.7493 7.87431 17.6082 4.73322C14.4671 1.59214 9.37443 1.59214 6.23335 4.73322C3.09227 7.87431 3.09227 12.5707 6.23335 15.7118L9.09235 18.5708ZM19.2894 3.05205C15.2198 -1.01751 8.62174 -1.01751 4.55218 3.05205C0.482608 7.12162 0.482608 13.3234 4.55218 17.393L10.6204 23.4613C11.3386 24.1794 12.503 24.1794 13.2211 23.4613L19.2894 17.393C23.3589 13.3234 23.3589 7.12162 19.2894 3.05205Z"></path> <path fill='#333333' fill-rule="evenodd" clip-rule="evenodd" d="M11.8801 13.1326C13.1931 13.1326 14.2576 12.0681 14.2576 10.7551C14.2576 9.442 13.1931 8.37754 11.8801 8.37754C10.567 8.37754 9.50254 9.442 9.50254 10.7551C9.50254 12.0681 10.567 13.1326 11.8801 13.1326ZM11.8801 15.5101C14.5062 15.5101 16.6351 13.3812 16.6351 10.7551C16.6351 8.12892 14.5062 6 11.8801 6C9.25392 6 7.125 8.12892 7.125 10.7551C7.125 13.3812 9.25392 15.5101 11.8801 15.5101Z"></path> </svg>