<svg xmlns="http://www.w3.org/2000/svg" viewBox="0 0 20 20" id="consult" width="100%" height="100%"> <path fill='#48AFF9' d="M12.6936 12.2324C11.8097 11.5446 10.8119 11.15 9.9558 11.15C9.52232 11.15 9.05765 11.3702 8.6325 11.6141C8.36125 11.2551 7.96369 10.6953 7.76552 10.3493C7.58146 10.0269 7.36363 9.5344 7.20435 9.09614C7.5147 8.96864 7.79769 8.81059 7.99049 8.58858C8.63965 7.84215 8.9107 6.62866 8.73435 5.25928C8.48076 3.29141 7.21129 1.66567 5.84431 1.55844C5.06074 1.49809 4.13259 1.69467 3.48088 2.06262C2.52613 2.60196 1.84363 3.53307 1.50724 4.7551C0.882145 7.0268 1.48939 10.0974 3.1316 12.9689C5.1084 16.4247 8.18414 18.7467 10.7853 18.7467C11.4975 18.7467 12.154 18.5797 12.7364 18.2506C13.0563 18.0703 14.1217 17.4059 14.3991 16.4352C14.724 15.2984 14.4468 13.5972 12.6936 12.2324ZM13.2259 16.1001C13.1145 16.4901 12.5986 16.9275 12.1365 17.1882C11.7392 17.4129 11.2847 17.5266 10.7853 17.5266C8.64144 17.5266 5.92968 15.4033 4.1908 12.3633C2.7283 9.80606 2.15064 7.01491 2.68361 5.07901C2.93541 4.16397 3.40562 3.50649 4.08078 3.12503C4.46998 2.9054 5.05004 2.76741 5.5532 2.76741C5.61992 2.76741 5.68547 2.76997 5.74881 2.77495C6.34132 2.82143 7.31455 3.78848 7.52425 5.41538C7.65232 6.40926 7.47818 7.31852 7.07052 7.78756C7.02883 7.83243 6.88347 7.93253 6.37849 8.09833C5.77582 8.29612 5.81214 8.70876 5.85584 8.87774C6.01371 9.48419 6.38722 10.3964 6.70652 10.955C6.93926 11.3617 7.35308 11.9348 7.47441 12.1008C7.99804 12.8175 8.14918 13.0049 8.49289 13.0049C8.68392 13.0049 8.80467 12.9321 9.02367 12.7998C9.19982 12.6936 9.73578 12.3701 9.95578 12.3701C10.537 12.3701 11.2803 12.6785 11.9441 13.1952C13.218 14.1868 13.4416 15.3459 13.2259 16.1001Z"></path> <path fill='#48AFF9' d="M10.5636 5.51556C10.2267 5.51556 9.95361 5.78859 9.95361 6.12558V6.7207C9.95361 7.05769 10.2267 7.33074 10.5636 7.33074C10.9006 7.33074 11.1737 7.05769 11.1737 6.72072V6.12558C11.1737 5.78859 10.9006 5.51556 10.5636 5.51556ZM15.3248 5.51556C14.9879 5.51556 14.7148 5.78859 14.7148 6.12558V6.7207C14.7148 7.05769 14.9879 7.33074 15.3248 7.33074C15.6618 7.33074 15.9349 7.05769 15.9349 6.72072V6.12558C15.9349 5.78859 15.6618 5.51556 15.3248 5.51556ZM14.4486 8.2781C14.1692 8.09462 13.7925 8.17265 13.6056 8.44927C13.603 8.45304 13.3397 8.83511 12.9382 8.83511C12.5478 8.83511 12.3048 8.48124 12.2885 8.45661C12.1092 8.17523 11.7359 8.08903 11.4519 8.26618C11.1658 8.44392 11.0778 8.82001 11.2557 9.10616C11.4747 9.45862 12.0754 10.0551 12.9382 10.0551C13.7969 10.0551 14.4051 9.463 14.6291 9.11331C14.8092 8.83212 14.7274 8.46179 14.4486 8.2781Z"></path> <path fill='#48AFF9' d="M11.4462 1.25952C10.7075 1.25952 9.97838 1.36835 9.27901 1.583C8.95713 1.68188 8.77604 2.02323 8.87491 2.3453C8.97379 2.66698 9.31376 2.84829 9.63721 2.74942C10.2202 2.57032 10.8291 2.47956 11.4462 2.47956C14.803 2.47956 17.5337 5.17601 17.5337 8.49042C17.5337 10.2519 16.7547 11.919 15.3965 13.0642C15.1389 13.2814 15.1062 13.6662 15.3232 13.9238C15.444 14.067 15.6163 14.1407 15.7901 14.1407C15.9289 14.1407 16.0684 14.0936 16.1828 13.9971C17.8167 12.6196 18.7538 10.6124 18.7538 8.49044C18.7538 4.50323 15.4757 1.25952 11.4462 1.25952H11.4462Z"></path> </svg>