<svg xmlns="http://www.w3.org/2000/svg" viewBox="0 0 16 16" id="phone" width="100%" height="100%"> <path fill='#333333' d="M13.7286 16H13.5107C11.1863 15.7078 8.86187 14.9041 6.90063 13.6621C5.08468 12.4931 3.48664 10.8858 2.32442 9.05936C1.01694 7.08676 0.217915 4.74886 0 2.41096C0 1.82648 0.145277 1.24201 0.508468 0.803653C0.871659 0.365297 1.38013 0.0730594 1.96123 0H4.35829C5.44787 0 6.39217 0.803653 6.53744 1.89954C6.61008 2.55708 6.75536 3.21461 6.97327 3.79909C7.26382 4.60274 7.04591 5.47945 6.4648 6.13699L5.95634 6.6484C6.82799 7.96347 7.91757 9.13242 9.2977 10.0091L9.80616 9.49772C10.3873 8.91324 11.3316 8.69406 12.1306 8.9863C12.7117 9.20548 13.3654 9.3516 14.0192 9.42466C15.1088 9.57078 15.9078 10.5205 15.9078 11.6164V13.8082C15.9078 14.3927 15.6899 14.9772 15.254 15.3425C14.8908 15.7808 14.3097 16 13.7286 16ZM4.35829 1.46119H2.17915C1.96123 1.46119 1.74332 1.60731 1.59804 1.75342C1.5254 1.89954 1.45276 2.04566 1.45276 2.26484C1.67068 4.38356 2.39706 6.42922 3.55927 8.25571C4.64885 9.93607 6.02898 11.3973 7.69965 12.4201C9.51561 13.589 11.5495 14.3196 13.656 14.5388H13.7286C13.9465 14.5388 14.0918 14.4658 14.2371 14.3196C14.3824 14.1735 14.455 14.0274 14.455 13.8082V11.6164C14.455 11.2511 14.1645 10.9589 13.8013 10.8858C13.0749 10.8128 12.3485 10.5936 11.6221 10.3014C11.3316 10.2283 11.041 10.3014 10.8231 10.4475L9.8788 11.3973C9.66089 11.6164 9.2977 11.6895 9.00714 11.5434C7.04591 10.4475 5.44787 8.84018 4.35829 6.86758C4.28566 6.57534 4.35829 6.21005 4.57621 5.99087L5.52051 5.0411C5.66578 4.89498 5.73842 4.52968 5.66578 4.3105C5.37523 3.57991 5.22995 2.84931 5.08468 2.11872C5.08468 1.75342 4.72149 1.46119 4.35829 1.46119Z"></path> </svg>