<svg xmlns="http://www.w3.org/2000/svg" viewBox="0 0 176 146" fill="none" fill-opacity="0.6" id="colorful-holder" width="100%" height="100%"> <path opacity="0.4" d="M45 75.5L87 61.5L128 75.5L87 88L45 75.5Z" fill='#48AFF9'></path> <path fill-rule="evenodd" clip-rule="evenodd" d="M106.853 45.3615C107.37 44.9999 108.027 44.9031 108.626 45.1004L151.126 59.1004C151.856 59.341 152.384 59.9791 152.483 60.7417C152.583 61.5044 152.236 62.2563 151.591 62.676L130.091 76.676C129.576 77.0114 128.936 77.0913 128.354 76.8927L90.0001 63.7963V89.5H86.0001V63.7645L46.1258 76.8996C45.5268 77.0969 44.8698 77.0001 44.3531 76.6385L24.3531 62.6385C23.7277 62.2006 23.406 61.445 23.5241 60.6907C23.6422 59.9364 24.1794 59.3152 24.9087 59.0894L66.9087 46.0894C67.4685 45.9161 68.0762 45.9971 68.5711 46.311L87.9453 58.597L106.853 45.3615ZM83.3569 60.4238L67.209 50.1837L29.9922 61.7032L45.8261 72.7869L83.3569 60.4238ZM92.3734 60.38L108.326 49.2131L145.919 61.5966L128.725 72.7926L92.3734 60.38Z" fill='#48AFF9'></path> <path fill-rule="evenodd" clip-rule="evenodd" d="M128.861 73.6049C129.448 73.4068 130.094 73.4922 130.609 73.8359L151.609 87.8359C152.245 88.2596 152.584 89.0084 152.482 89.7655C152.381 90.5226 151.857 91.1558 151.132 91.3974L131.5 97.9415V130.5C131.5 131.366 130.942 132.134 130.119 132.402L88.6187 145.902C88.2166 146.033 87.7834 146.033 87.3814 145.902L45.8814 132.402C45.0576 132.134 44.5 131.366 44.5 130.5V97.9305L25.3538 91.3927C24.6334 91.1467 24.1151 90.5131 24.0168 89.7582C23.9185 89.0034 24.2573 88.2582 24.8906 87.8359L44.3906 74.8359C44.8896 74.5032 45.5116 74.4121 46.0851 74.5875L87.9701 87.3994L128.861 73.6049ZM83.378 90.1777L45.8211 78.6897L30.4807 88.9166L66.7121 101.288L83.378 90.1777ZM86 93.237V141.246L48.5 129.047V99.2963L66.3538 105.393C66.9427 105.594 67.5917 105.509 68.1094 105.164L86 93.237ZM90 141.246V93.2878L107.372 105.152C107.888 105.504 108.54 105.595 109.132 105.397L127.5 99.2749V129.047L90 141.246ZM92.4426 90.1121L129.208 77.7092L145.988 88.8958L108.809 101.289L92.4426 90.1121Z" fill='#48AFF9'></path> <path fill-rule="evenodd" clip-rule="evenodd" d="M97.6064 5.21985C97.7611 4.99113 98.0719 4.93114 98.3007 5.08586C98.44 5.18013 98.5779 5.27514 98.7143 5.37088C98.9403 5.52954 98.9949 5.84138 98.8362 6.06739C98.6775 6.2934 98.3657 6.34799 98.1397 6.18933C98.0081 6.09692 97.875 6.00519 97.7404 5.91415C97.5116 5.75942 97.4516 5.44857 97.6064 5.21985ZM101.079 7.89394C101.269 7.69345 101.586 7.68484 101.786 7.87472C102.027 8.10307 102.262 8.33414 102.49 8.56777C102.683 8.76526 102.68 9.08182 102.482 9.27483C102.285 9.46784 101.968 9.46421 101.775 9.26673C101.556 9.04232 101.33 8.82029 101.099 8.60079C100.898 8.41091 100.89 8.09444 101.079 7.89394ZM104.334 11.4999C104.56 11.3412 104.872 11.3957 105.03 11.6216C105.222 11.8943 105.407 12.1691 105.584 12.4459C105.734 12.6782 105.666 12.9876 105.434 13.1368C105.202 13.2861 104.892 13.2188 104.743 12.9865C104.573 12.7212 104.396 12.4578 104.212 12.1964C104.053 11.9705 104.108 11.6586 104.334 11.4999ZM106.792 15.6915C107.045 15.5823 107.339 15.6995 107.449 15.9531C107.58 16.2582 107.704 16.5647 107.822 16.8721C107.921 17.13 107.792 17.4191 107.534 17.518C107.276 17.6168 106.987 17.4879 106.888 17.23C106.775 16.935 106.656 16.6411 106.53 16.3485C106.421 16.0948 106.538 15.8007 106.792 15.6915ZM108.353 20.2941C108.623 20.2367 108.888 20.4091 108.946 20.6792C109.015 21.0036 109.077 21.3281 109.134 21.6524C109.181 21.9245 108.999 22.1833 108.726 22.2306C108.454 22.2778 108.196 22.0956 108.148 21.8235C108.094 21.5113 108.034 21.1991 107.968 20.8871C107.91 20.617 108.083 20.3515 108.353 20.2941ZM109.012 25.1098C109.288 25.1022 109.518 25.3198 109.525 25.5959C109.534 25.9278 109.538 26.2585 109.535 26.5876C109.533 26.8637 109.308 27.086 109.032 27.084C108.755 27.082 108.533 26.8565 108.535 26.5804C108.538 26.2627 108.534 25.9436 108.526 25.6234C108.518 25.3474 108.736 25.1175 109.012 25.1098ZM84.0668 29.1681C84.1235 28.8979 84.3886 28.7248 84.6588 28.7816C84.9848 28.85 85.3084 28.9532 85.6258 29.0869C85.8803 29.1941 85.9997 29.4873 85.8925 29.7418C85.7853 29.9962 85.4921 30.1156 85.2376 30.0084C84.9745 29.8976 84.712 29.8145 84.4533 29.7602C84.1831 29.7035 84.01 29.4384 84.0668 29.1681ZM81.5544 29.954C81.7578 30.1407 81.7714 30.457 81.5846 30.6605C81.4134 30.847 81.2494 31.0645 81.0957 31.316C80.9516 31.5516 80.6439 31.6258 80.4083 31.4818C80.1727 31.3378 80.0984 31.03 80.2425 30.7944C80.4274 30.4918 80.6298 30.2218 80.848 29.9842C81.0347 29.7808 81.351 29.7673 81.5544 29.954ZM108.813 29.9688C109.086 30.0084 109.275 30.262 109.236 30.5353C109.188 30.8635 109.135 31.1887 109.078 31.5107C109.029 31.7824 108.769 31.9632 108.497 31.9143C108.225 31.8655 108.044 31.6055 108.093 31.3337C108.149 31.0229 108.2 30.7089 108.246 30.392C108.286 30.1187 108.539 29.9293 108.813 29.9688ZM87.9543 31.4379C88.1741 31.2708 88.4878 31.3136 88.6549 31.5335C88.8483 31.7881 89.0308 32.0563 89.2005 32.3368C89.3434 32.5731 89.2678 32.8805 89.0315 33.0234C88.7952 33.1663 88.4878 33.0907 88.3449 32.8544C88.1934 32.604 88.0307 32.365 87.8586 32.1385C87.6916 31.9186 87.7344 31.6049 87.9543 31.4379ZM79.6392 34.0381C79.913 34.074 80.1059 34.3251 80.07 34.5989C80.0508 34.7454 80.0334 34.8957 80.018 35.0497C80.0028 35.2022 79.9919 35.3525 79.9852 35.5007C79.9726 35.7765 79.7389 35.99 79.463 35.9775C79.1872 35.965 78.9737 35.7312 78.9862 35.4554C78.9937 35.2888 79.006 35.1204 79.023 34.9502C79.0394 34.7863 79.0579 34.6259 79.0785 34.4689C79.1143 34.1951 79.3654 34.0023 79.6392 34.0381ZM107.788 34.7194C108.05 34.8063 108.192 35.0893 108.105 35.3514C108 35.6701 107.889 35.9832 107.774 36.2903C107.677 36.5489 107.389 36.6798 107.13 36.5828C106.871 36.4858 106.741 36.1976 106.838 35.939C106.948 35.6442 107.055 35.3432 107.156 35.0366C107.243 34.7745 107.526 34.6325 107.788 34.7194ZM89.9129 35.5455C90.1869 35.5111 90.437 35.7052 90.4714 35.9792C90.4916 36.1395 90.5076 36.3013 90.5192 36.4644C90.532 36.6424 90.5345 36.82 90.5275 36.997C90.5165 37.2729 90.2838 37.4876 90.0079 37.4766C89.732 37.4656 89.5172 37.233 89.5283 36.9571C89.5339 36.8165 89.5318 36.6761 89.5218 36.5356C89.5114 36.3906 89.4972 36.2467 89.4792 36.104C89.4448 35.8301 89.6389 35.58 89.9129 35.5455ZM80.0086 38.6947C80.256 38.5719 80.556 38.673 80.6787 38.9204C80.8093 39.1836 80.957 39.4382 81.1206 39.6841C81.2735 39.914 81.2112 40.2243 80.9813 40.3773C80.7514 40.5303 80.441 40.4679 80.288 40.238C80.1017 39.9581 79.9328 39.667 79.7829 39.3648C79.6602 39.1174 79.7612 38.8174 80.0086 38.6947ZM105.888 39.1947C106.125 39.3372 106.201 39.6445 106.058 39.881C105.883 40.1729 105.702 40.454 105.517 40.7235C105.361 40.9513 105.05 41.0093 104.822 40.8532C104.594 40.6971 104.536 40.3859 104.692 40.1581C104.866 39.9054 105.036 39.6408 105.202 39.3649C105.344 39.1284 105.652 39.0522 105.888 39.1947ZM88.9232 40.0622C89.1478 40.2229 89.1995 40.5352 89.0388 40.7598C88.8516 41.0212 88.6502 41.2814 88.4365 41.5404C88.2607 41.7533 87.9456 41.7835 87.7326 41.6077C87.5196 41.432 87.4894 41.1168 87.6652 40.9038C87.8661 40.6604 88.0533 40.4185 88.2256 40.1777C88.3864 39.9532 88.6987 39.9014 88.9232 40.0622ZM82.9904 42.2978C83.1423 42.0672 83.4524 42.0034 83.683 42.1553C83.9327 42.3199 84.1923 42.477 84.4608 42.6265C84.702 42.7609 84.7886 43.0655 84.6542 43.3067C84.5198 43.5479 84.2153 43.6345 83.9741 43.5001C83.685 43.3391 83.4042 43.1692 83.1328 42.9904C82.9022 42.8384 82.8384 42.5284 82.9904 42.2978ZM102.842 42.965C102.997 43.1936 102.937 43.5045 102.709 43.6593C102.563 43.7579 102.417 43.8496 102.269 43.9341C102.127 44.015 101.982 44.0931 101.834 44.1685C101.588 44.294 101.287 44.1962 101.162 43.9502C101.036 43.7042 101.134 43.4031 101.38 43.2777C101.514 43.2092 101.645 43.1386 101.772 43.0659C101.897 42.9946 102.022 42.9164 102.148 42.8314C102.377 42.6765 102.687 42.7363 102.842 42.965ZM85.7541 43.6091C85.9397 43.8136 85.9243 44.1298 85.7198 44.3154C85.4846 44.5287 85.2448 44.7422 85.0014 44.9557C84.7938 45.1378 84.4779 45.1172 84.2958 44.9096C84.1137 44.702 84.1343 44.3861 84.3419 44.204C84.5818 43.9935 84.8174 43.7838 85.0479 43.5747C85.2524 43.3892 85.5686 43.4046 85.7541 43.6091ZM87.2367 44.3479C87.3124 44.0823 87.589 43.9284 87.8546 44.0041C88.1486 44.0879 88.4465 44.1653 88.7478 44.2361C89.0166 44.2993 89.1833 44.5685 89.12 44.8373C89.0568 45.1061 88.7877 45.2728 88.5188 45.2095C88.2028 45.1352 87.8898 45.054 87.5804 44.9658C87.3149 44.8901 87.161 44.6135 87.2367 44.3479ZM98.5161 44.821C98.5707 45.0917 98.3956 45.3554 98.1249 45.41C97.811 45.4733 97.4919 45.5292 97.1684 45.5778C96.8954 45.6188 96.6407 45.4307 96.5997 45.1576C96.5587 44.8845 96.7469 44.6299 97.0199 44.5889C97.3274 44.5427 97.6301 44.4896 97.9271 44.4297C98.1978 44.3751 98.4615 44.5503 98.5161 44.821ZM91.8754 45.2391C91.8928 44.9635 92.1304 44.7543 92.406 44.7718C92.7148 44.7914 93.0236 44.8047 93.3315 44.8119C93.6075 44.8183 93.8261 45.0472 93.8197 45.3233C93.8133 45.5994 93.5844 45.818 93.3083 45.8116C92.987 45.8041 92.6649 45.7902 92.3427 45.7698C92.0671 45.7523 91.8579 45.5147 91.8754 45.2391ZM82.1452 46.728C82.3227 46.9396 82.295 47.2549 82.0834 47.4324C81.8404 47.6363 81.5974 47.8405 81.3551 48.0453C81.1441 48.2235 80.8287 48.197 80.6504 47.9861C80.4722 47.7752 80.4987 47.4597 80.7096 47.2815C80.9533 47.0756 81.1973 46.8704 81.4408 46.6662C81.6524 46.4888 81.9678 46.5164 82.1452 46.728ZM78.5347 49.8432C78.7237 50.0446 78.7136 50.361 78.5122 50.55C78.2811 50.7668 78.0543 50.9842 77.8327 51.2024C77.6359 51.3961 77.3193 51.3937 77.1256 51.1969C76.9319 51.0001 76.9344 50.6835 77.1312 50.4898C77.3591 50.2654 77.5917 50.0424 77.828 49.8207C78.0294 49.6318 78.3458 49.6418 78.5347 49.8432ZM75.2583 53.3026C75.4818 53.4647 75.5316 53.7774 75.3694 54.0009C75.1858 54.2539 75.0135 54.5077 74.8536 54.7622C74.7068 54.9961 74.3981 55.0666 74.1643 54.9197C73.9305 54.7728 73.86 54.4641 74.0069 54.2303C74.1796 53.9554 74.3645 53.6832 74.56 53.4136C74.7222 53.1901 75.0348 53.1404 75.2583 53.3026ZM73.1306 57.5295C73.4044 57.5654 73.5973 57.8164 73.5614 58.0902C73.5422 58.2362 73.5282 58.3825 73.5196 58.5294C73.5097 58.6984 73.5036 58.8658 73.5012 59.0316C73.4972 59.3077 73.2701 59.5283 72.994 59.5243C72.7179 59.5203 72.4973 59.2933 72.5013 59.0172C72.5039 58.8366 72.5105 58.6544 72.5213 58.4706C72.5314 58.2995 72.5477 58.1294 72.5698 57.9602C72.6058 57.6864 72.8568 57.4935 73.1306 57.5295ZM73.5292 62.6606C73.7884 62.5654 74.0758 62.6983 74.171 62.9575C74.2875 63.2748 74.4171 63.5835 74.5581 63.8836C74.6755 64.1335 74.568 64.4313 74.3181 64.5487C74.0681 64.6661 73.7704 64.5587 73.6529 64.3087C73.5001 63.9833 73.3592 63.6477 73.2323 63.3023C73.1371 63.0431 73.27 62.7558 73.5292 62.6606ZM76.1129 67.1794C76.3164 66.9927 76.6327 67.0063 76.8194 67.2098C77.0521 67.4635 77.2898 67.705 77.5298 67.9343C77.7294 68.1251 77.7367 68.4416 77.5459 68.6412C77.3552 68.8409 77.0387 68.8481 76.839 68.6574C76.5838 68.4135 76.3307 68.1563 76.0826 67.8859C75.8959 67.6824 75.9095 67.3661 76.1129 67.1794ZM80.1133 70.5308C80.2431 70.2871 80.5459 70.1948 80.7897 70.3246C80.9447 70.4072 81.093 70.4816 81.2334 70.5476C81.4832 70.6652 81.5904 70.963 81.4729 71.2129C81.3553 71.4628 81.0574 71.57 80.8076 71.4524C80.6514 71.3789 80.4883 71.2971 80.3195 71.2072C80.0758 71.0774 79.9835 70.7745 80.1133 70.5308Z" fill='#48AFF9'></path> <path d="M94 6.88976V1.19821C94 0.574309 94.565 0.102735 95.1789 0.214343L100.87 1.24917C101.709 1.40171 101.985 2.467 101.325 3.007L95.6332 7.66371C94.9803 8.19793 94 7.73338 94 6.88976Z" fill='#48AFF9'></path> <path opacity="0.4" fill-rule="evenodd" clip-rule="evenodd" d="M5.5 69C3.567 69 2 70.567 2 72.5C2 74.433 3.567 76 5.5 76C7.433 76 9 74.433 9 72.5C9 70.567 7.433 69 5.5 69ZM0 72.5C0 69.4624 2.46243 67 5.5 67C8.53757 67 11 69.4624 11 72.5C11 75.5376 8.53757 78 5.5 78C2.46243 78 0 75.5376 0 72.5Z" fill='#48AFF9'></path> <path opacity="0.4" fill-rule="evenodd" clip-rule="evenodd" d="M12 104C10.8954 104 10 104.895 10 106C10 107.105 10.8954 108 12 108C13.1046 108 14 107.105 14 106C14 104.895 13.1046 104 12 104ZM8 106C8 103.791 9.79086 102 12 102C14.2091 102 16 103.791 16 106C16 108.209 14.2091 110 12 110C9.79086 110 8 108.209 8 106Z" fill='#48AFF9'></path> <path opacity="0.4" fill-rule="evenodd" clip-rule="evenodd" d="M163.5 128C161.567 128 160 129.567 160 131.5C160 133.433 161.567 135 163.5 135C165.433 135 167 133.433 167 131.5C167 129.567 165.433 128 163.5 128ZM158 131.5C158 128.462 160.462 126 163.5 126C166.538 126 169 128.462 169 131.5C169 134.538 166.538 137 163.5 137C160.462 137 158 134.538 158 131.5Z" fill='#48AFF9'></path> <path opacity="0.4" fill-rule="evenodd" clip-rule="evenodd" d="M172 101C170.895 101 170 101.895 170 103C170 104.105 170.895 105 172 105C173.105 105 174 104.105 174 103C174 101.895 173.105 101 172 101ZM168 103C168 100.791 169.791 99 172 99C174.209 99 176 100.791 176 103C176 105.209 174.209 107 172 107C169.791 107 168 105.209 168 103Z" fill='#48AFF9'></path> </svg>