<svg xmlns="http://www.w3.org/2000/svg" viewBox="0 0 18 18" id="my-course-card" width="100%" height="100%"> <path d="M4 12.5H7" stroke="#ED7979" stroke-width="1.4" stroke-linecap="round"></path> <path d="M18 4.2045C18 2.987 16.9635 2 15.6855 2H2.315C1.0365 2 0 2.987 0 4.2045V14.295C0 15.513 1.0365 16.5 2.3145 16.5H15.685C16.9635 16.5 18 15.513 18 14.2955V4.2045ZM2.3145 3.4695H15.685C16.1095 3.4695 16.4565 3.8005 16.4565 4.2045V5.9925H1.543V4.2045C1.543 3.8005 1.89 3.4695 2.3145 3.4695ZM15.685 15.0305H2.315C1.8905 15.0305 1.5435 14.6995 1.5435 14.2955V7.462H16.4575V14.2955C16.4575 14.6995 16.1105 15.0305 15.686 15.0305H15.685Z"></path> </svg>