<svg xmlns="http://www.w3.org/2000/svg" viewBox="0 0 18 18" id="my-appointment" width="100%" height="100%"> <path d="M16.3125 2.43753H13.5V2.08597C13.5 1.73646 13.2167 1.45316 12.8672 1.45316C12.5177 1.45316 12.2344 1.73646 12.2344 2.08597V2.43753H5.76562V2.08597C5.76562 1.73646 5.4823 1.45316 5.13281 1.45316C4.78332 1.45316 4.5 1.73646 4.5 2.08597V2.43753H1.6875C1.37637 2.43753 1.125 2.6889 1.125 3.00003V15.375C1.125 15.6862 1.37637 15.9375 1.6875 15.9375H16.3125C16.6236 15.9375 16.875 15.6862 16.875 15.375V3.00003C16.875 2.6889 16.6236 2.43753 16.3125 2.43753ZM15.6094 14.6719H2.39062V3.70316H4.5V4.80471C4.5 5.15421 4.78332 5.43752 5.13281 5.43752C5.4823 5.43752 5.76562 5.15421 5.76562 4.80471V3.70316H12.2344V4.80471C12.2344 5.15421 12.5177 5.43752 12.8672 5.43752C13.2167 5.43752 13.5 5.15421 13.5 4.80471V3.70316H15.6094V14.6719ZM7.26562 7.96877H3.89062C3.57996 7.96877 3.32812 8.22061 3.32812 8.53127C3.32812 8.84193 3.57996 9.09377 3.89062 9.09377H7.26562C7.57628 9.09377 7.82812 8.84193 7.82812 8.53127C7.82812 8.22061 7.57628 7.96877 7.26562 7.96877ZM7.26562 10.3594H3.89062C3.57996 10.3594 3.32812 10.6112 3.32812 10.9219C3.32812 11.2326 3.57996 11.4844 3.89062 11.4844H7.26562C7.57628 11.4844 7.82812 11.2326 7.82812 10.9219C7.82812 10.6112 7.57628 10.3594 7.26562 10.3594Z"></path> <path d="M9.89997 9.2L11.5 10.6L14.1 8" stroke="#ED7979" stroke-linecap="round" stroke-linejoin="round" fill="none"></path> </svg>