<svg xmlns="http://www.w3.org/2000/svg" viewBox="0 0 20 20" fill="none" id="arrow-right" width="100%" height="100%"> <path opacity="0.65" d="M6.5197 17.0002C6.6863 16.9989 6.84666 16.9366 6.9705 16.8252L13.9341 10.605C14.0196 10.5258 14.0876 10.4295 14.1336 10.3225C14.1797 10.2154 14.2028 10.0999 14.2015 9.98336C14.2029 9.86701 14.1798 9.75168 14.1337 9.64484C14.0877 9.53799 14.0196 9.44202 13.9341 9.36316L6.9999 3.17516C6.92856 3.11036 6.84409 3.06171 6.75225 3.0325C6.66041 3.0033 6.56335 2.99424 6.46769 3.00593C6.37203 3.01762 6.28001 3.0498 6.19791 3.10026C6.1158 3.15072 6.04554 3.21829 5.9919 3.29836C5.87214 3.46688 5.81725 3.67298 5.83731 3.87875C5.85737 4.08452 5.95104 4.27613 6.1011 4.41836L12.3381 9.98476L6.0703 15.582C5.91982 15.7238 5.82562 15.9152 5.80504 16.121C5.78446 16.3268 5.83889 16.5331 5.9583 16.702C6.1025 16.898 6.3083 17.0002 6.5197 17.0002Z" fill="#737373"></path> </svg>