<svg xmlns="http://www.w3.org/2000/svg" viewBox="0 0 20 20" id="new-setting" width="100%" height="100%"> <path d="M18.548 8.29665C18.446 7.75747 18.1167 7.40911 17.7092 7.40911C17.704 7.40911 17.6987 7.40917 17.6958 7.40925H17.6208C16.4424 7.40925 15.4836 6.4505 15.4836 5.27202C15.4836 4.88958 15.6681 4.46081 15.6697 4.45711C15.8809 3.98171 15.7184 3.39875 15.2921 3.10135L15.2663 3.08318L13.1003 1.87996L13.0729 1.86795C12.9319 1.80661 12.7775 1.77551 12.614 1.77551C12.2789 1.77551 11.9494 1.90998 11.7327 2.13498C11.4951 2.3802 10.6751 3.08016 10.0451 3.08016C9.40928 3.08016 8.58442 2.36645 8.34583 2.1167C8.12795 1.88709 7.79582 1.75001 7.45741 1.75001C7.29712 1.75001 7.1455 1.78001 7.00683 1.83917L6.97869 1.8511L4.73633 3.08284L4.70985 3.10121C4.28218 3.39835 4.11879 3.98079 4.32977 4.45593C4.33163 4.46021 4.51638 4.88662 4.51638 5.27194C4.51638 6.45042 3.55763 7.40917 2.37915 7.40917H2.30532C2.30021 7.40906 2.2951 7.409 2.28999 7.40899C1.88291 7.40899 1.55395 7.75737 1.45194 8.29667C1.44448 8.3362 1.26962 9.27364 1.26962 10.0068C1.26962 10.74 1.4445 11.6774 1.45198 11.717C1.55407 12.2562 1.88323 12.6046 2.29059 12.6046C2.29575 12.6046 2.30108 12.6045 2.30416 12.6044H2.37919C3.55767 12.6044 4.51642 13.5632 4.51642 14.7416C4.51642 15.1245 4.33199 15.5528 4.33035 15.5565C4.11933 16.0315 4.28132 16.6144 4.70737 16.9127L4.73266 16.9303L6.85733 18.1185L6.88434 18.1304C7.02536 18.1923 7.17934 18.2237 7.34199 18.2237C7.68174 18.2237 8.01363 18.0834 8.22978 17.8483C8.53154 17.5204 9.35026 16.8433 9.95493 16.8433C10.6097 16.8433 11.4493 17.6024 11.6916 17.868C11.9082 18.107 12.2423 18.2498 12.5855 18.2499H12.5856C12.7451 18.2499 12.8963 18.2195 13.0351 18.1597L13.0627 18.1478L15.2651 16.9305L15.2912 16.9123C15.7181 16.6149 15.881 16.0324 15.6705 15.5583C15.6686 15.554 15.4836 15.1219 15.4836 14.7417C15.4836 13.5632 16.4424 12.6044 17.6209 12.6044L17.6936 12.6044C17.6985 12.6045 17.7033 12.6046 17.7081 12.6046C18.1164 12.6045 18.446 12.2561 18.5479 11.7173C18.5497 11.7078 18.7304 10.7583 18.7304 10.0068C18.7304 9.27027 18.5554 8.33608 18.548 8.29665ZM7.35306 16.9899L5.49448 15.9507C5.57638 15.7403 5.74327 15.2493 5.74327 14.7417C5.74327 12.9789 4.38671 11.5215 2.63959 11.3875C2.59692 11.1389 2.49659 10.5016 2.49659 10.0069C2.49659 9.51282 2.59688 8.87503 2.63953 8.62622C4.38673 8.49227 5.74329 7.03486 5.74329 5.272C5.74329 4.7657 5.5773 4.27609 5.49556 4.06568L7.4733 2.97943L7.47342 2.97945C7.54469 3.05226 7.82991 3.33529 8.22373 3.61592C8.86723 4.07461 9.48 4.30719 10.045 4.30719C10.6045 4.30719 11.2124 4.07913 11.8518 3.62929C12.2432 3.35404 12.527 3.07649 12.5981 3.00487L12.5986 3.00478L14.5051 4.064C14.4232 4.27439 14.2566 4.76502 14.2566 5.27202C14.2566 7.0349 15.6132 8.49229 17.3604 8.62624C17.403 8.87543 17.5033 9.51434 17.5033 10.0069C17.5033 10.5015 17.403 11.1389 17.3604 11.3876C15.6132 11.5215 14.2566 12.9789 14.2566 14.7418C14.2566 15.2487 14.4229 15.7386 14.5047 15.9489L12.5743 17.0158C12.491 16.9273 12.21 16.6393 11.8211 16.3504C11.1651 15.8633 10.5373 15.6163 9.95485 15.6163C9.37805 15.6163 8.75491 15.8587 8.10273 16.3366C7.71941 16.6176 7.43652 16.9029 7.35306 16.9899ZM13.0546 9.99555C13.0546 8.29045 11.6673 6.90327 9.96213 6.90327C8.25703 6.90327 6.86985 8.29045 6.86985 9.99555C6.86985 11.7007 8.25703 13.0879 9.96213 13.0879C11.6673 13.0879 13.0546 11.7007 13.0546 9.99555ZM9.96213 8.13028C10.9907 8.13028 11.8275 8.96705 11.8275 9.99557C11.8275 11.0242 10.9907 11.861 9.96213 11.861C8.93361 11.861 8.09683 11.0242 8.09683 9.99557C8.09683 8.96701 8.93361 8.13028 9.96213 8.13028Z" fill='#BEBEBE'></path> </svg>