<svg xmlns="http://www.w3.org/2000/svg" viewBox="0 0 20 20" fill="none" id="notification" width="100%" height="100%"> <path d="M10 4.01733C11.264 4.01733 12.4753 4.47067 13.3693 5.27867C14.2627 6.08667 14.7647 7.182 14.7647 8.32533V13.4367C14.766 13.8415 14.9062 14.2336 15.162 14.5473L15.9133 15.504H4.08668L4.83802 14.5473C5.0938 14.2336 5.23407 13.8415 5.23535 13.4367V8.32467C5.23535 7.182 5.73735 6.08667 6.63068 5.27867C7.52402 4.47067 8.73602 4.01733 10 4.01733ZM10 2.58133C6.49135 2.58133 3.64668 5.15267 3.64668 8.32467V13.4367C3.64554 13.5377 3.6103 13.6355 3.54668 13.714L2.19602 15.4273C2.08395 15.5658 2.0165 15.735 2.00257 15.9126C1.98865 16.0901 2.0289 16.2678 2.11802 16.422C2.29935 16.74 2.66268 16.94 3.05935 16.94H16.94C17.3367 16.94 17.7 16.74 17.8813 16.422C17.9703 16.2678 18.0105 16.0903 17.9966 15.9129C17.9826 15.7355 17.9153 15.5664 17.8033 15.428L16.4533 13.7147C16.3893 13.636 16.3539 13.538 16.3527 13.4367V8.32467C16.3527 5.15267 13.508 2.58133 9.99935 2.58133H10ZM10.5293 1.436H9.47068C9.03202 1.436 8.67668 1.11467 8.67668 0.718C8.67668 0.321333 9.03202 0 9.47002 0H10.53C10.968 0 11.3233 0.321333 11.3233 0.718C11.3233 1.11467 10.968 1.436 10.53 1.436H10.5293ZM11.8533 20H8.67735C8.23868 20 7.88268 19.6787 7.88268 19.282C7.88268 18.8853 8.23868 18.564 8.67735 18.564H11.8533C12.292 18.564 12.648 18.8853 12.648 19.282C12.648 19.6787 12.2913 20 11.8527 20H11.8533Z" fill="#BEBEBE"></path> </svg>