<svg xmlns="http://www.w3.org/2000/svg" viewBox="0 0 18 18" id="my-comment" width="100%" height="100%"> <path d="M6.04925 15.378C5.8965 15.5568 5.6841 15.6741 5.45144 15.7082L2.12436 16.1939C2.07791 16.2005 2.03106 16.2039 1.98415 16.204C1.44827 16.204 1.0117 15.7647 1.00974 15.2245L1.00001 11.8371C0.999195 11.6005 1.08352 11.3714 1.23757 11.1918L10.5396 0.329581C10.8773 -0.0645206 11.5226 -0.113616 11.9148 0.227944L15.2512 3.12974C15.3486 3.21409 15.4284 3.31687 15.486 3.43216C15.5435 3.54746 15.5777 3.67299 15.5865 3.80154C15.5963 3.93005 15.5807 4.05923 15.5405 4.18166C15.5002 4.3041 15.4362 4.41739 15.3521 4.51504L6.04925 15.378ZM11.2983 1.24869L2.16992 11.9072L2.17888 14.9948L5.21114 14.5523L14.3391 3.89384L11.2983 1.24869ZM1.58458 16.6153H16.7557C17.0785 16.6153 17.3406 16.8793 17.3406 17.2049C17.3406 17.5305 17.0785 17.7941 16.7557 17.7941H1.58458C1.50751 17.7938 1.43125 17.7783 1.36016 17.7486C1.28907 17.7188 1.22455 17.6753 1.17026 17.6206C1.11598 17.5659 1.073 17.501 1.04379 17.4297C1.01458 17.3584 0.9997 17.282 1.00001 17.2049C1.00001 16.8793 1.26173 16.6153 1.58458 16.6153Z"></path> <path d="M12.5 13.5H16.8" stroke="#ED7979" stroke-width="1.2" stroke-linecap="round" stroke-linejoin="round"></path> </svg>