<svg xmlns="http://www.w3.org/2000/svg" viewBox="0 0 20 20" id="help" width="100%" height="100%"> <path d="M10.0028 19.9686C9.28856 19.9686 8.58713 19.7757 7.9757 19.4115L2.80713 16.4329C2.2009 16.083 1.69624 15.5813 1.34284 14.9772C1.00063 14.3826 0.819886 13.7089 0.818558 13.0229V6.9786C0.818558 6.22145 1.03427 5.48288 1.43999 4.84288C1.83253 4.22905 2.38528 3.7341 3.03856 3.41145L8.02856 0.532883C8.64023 0.191515 9.33011 0.0149326 10.0306 0.0204422C10.731 0.0259517 11.418 0.213364 12.0243 0.564312L17.1957 3.54431C18.4414 4.26574 19.1828 5.53288 19.1828 6.93431V13C19.1828 13.7426 18.9746 14.4703 18.582 15.1005C18.1893 15.7308 17.6279 16.2384 16.9614 16.5657L11.9743 19.4457C11.3742 19.7894 10.6944 19.9697 10.0028 19.9686ZM10.0028 1.32145C9.53856 1.32145 9.08141 1.44145 8.67999 1.67003L3.6557 4.5686C3.19892 4.78413 2.81289 5.12519 2.54273 5.55195C2.27256 5.9787 2.12941 6.47352 2.12999 6.9786V13.0229C2.12999 13.4757 2.24999 13.9229 2.47856 14.3186C2.71427 14.7215 3.05427 15.0615 3.46284 15.2957L8.63999 18.2786C9.04465 18.5174 9.50491 18.6457 9.97474 18.6507C10.4446 18.6557 10.9075 18.5372 11.3171 18.3072L16.3428 15.4072C16.82 15.17 17.19 14.84 17.4514 14.4272C17.7243 14 17.8686 13.5043 17.8686 12.9972V6.93288C17.8686 6.00574 17.37 5.16288 16.5357 4.6786L11.36 1.69574C10.9497 1.45083 10.4807 1.3215 10.0028 1.32145Z" fill="#BEBEBE"></path> <path d="M9.99143 13.6229C10.1217 13.6178 10.2516 13.6394 10.3732 13.6863C10.4948 13.7332 10.6055 13.8045 10.6986 13.8957C10.7877 13.9838 10.8578 14.0892 10.9048 14.2054C10.9517 14.3216 10.9744 14.4462 10.9714 14.5714C10.9766 14.7009 10.9533 14.8299 10.9032 14.9494C10.8531 15.0688 10.7774 15.1758 10.6814 15.2629C10.4942 15.4383 10.2473 15.536 9.99071 15.536C9.73414 15.536 9.48719 15.4383 9.3 15.2629C9.20899 15.1729 9.13773 15.0649 9.09075 14.9459C9.04377 14.8269 9.02211 14.6993 9.02714 14.5714C9.02714 14.2986 9.10714 14.0729 9.3 13.8957C9.39003 13.8048 9.49799 13.7336 9.61702 13.6866C9.73606 13.6396 9.86356 13.6179 9.99143 13.6229ZM10.0957 3.8343C11.1243 3.8343 11.9443 4.1043 12.5714 4.67716C13.1657 5.21859 13.4714 5.96573 13.4714 6.92002C13.4714 7.63573 13.2629 8.25573 12.86 8.78002C12.6986 8.97145 12.2657 9.3843 11.5586 10.0057C11.2566 10.2498 11.0007 10.5459 10.8029 10.88C10.5957 11.231 10.4898 11.6325 10.4971 12.04C10.496 12.1374 10.4565 12.2304 10.3873 12.2989C10.318 12.3673 10.2245 12.4057 10.1271 12.4057H9.58143C9.48357 12.4059 9.38962 12.3673 9.32 12.2986C9.28559 12.2649 9.25825 12.2247 9.23961 12.1803C9.22097 12.1359 9.21138 12.0882 9.21143 12.04C9.21143 11.5157 9.30857 11.0543 9.50143 10.6572C9.72714 10.18 10.2571 9.57573 11.1243 8.81288C11.317 8.63256 11.4992 8.44129 11.67 8.24002C11.9914 7.84288 12.1529 7.42859 12.1529 6.9843C12.1529 6.34859 11.96 5.85573 11.6057 5.50573C11.2357 5.1243 10.7057 4.94859 10.0314 4.94859C9.22714 4.94859 8.63285 5.2043 8.24714 5.72716C8.04571 5.98288 7.88571 6.46859 7.77143 7.18288C7.75412 7.28733 7.7002 7.38221 7.61931 7.45053C7.53843 7.51884 7.43587 7.55614 7.33 7.55573H6.97571C6.91038 7.55622 6.84575 7.54224 6.78646 7.5148C6.72717 7.48736 6.67468 7.44715 6.63276 7.39704C6.59084 7.34692 6.56053 7.28816 6.544 7.22495C6.52747 7.16175 6.52513 7.09567 6.53714 7.03145C6.74 5.98431 7.02571 5.27002 7.39571 4.88573C8.03857 4.18573 8.93857 3.83573 10.0957 3.8343Z" fill="#BEBEBE"></path> </svg>