<svg xmlns="http://www.w3.org/2000/svg" viewBox="0 0 18 18" id="my-order" width="100%" height="100%"> <path d="M10.8589 7.85053H5.50469C5.17742 7.85053 4.90906 7.5568 4.90906 7.19762C4.90906 6.84008 5.17742 6.54553 5.50469 6.54553H10.8589C11.1861 6.54553 11.4545 6.83926 11.4545 7.19762C11.4545 7.5568 11.1861 7.85053 10.8589 7.85053ZM9.07114 10.6364H5.50469C5.17742 10.6364 4.90906 10.3427 4.90906 9.98434C4.90906 9.62516 5.17742 9.33143 5.50469 9.33143H9.07114C9.39841 9.33143 9.66677 9.62516 9.66677 9.98434C9.66677 10.3427 9.39841 10.6364 9.07114 10.6364Z" fill='#ED7979'></path> <path d="M14.7338 1.65112H12.96V0.634945C12.9565 0.463938 12.8856 0.301228 12.7627 0.182292C12.6398 0.0633571 12.4748 -0.00215609 12.3038 3.81342e-05C11.9438 3.81342e-05 11.6476 0.286401 11.6476 0.634945V1.65112H6.35234V0.634945C6.3489 0.463938 6.27798 0.301228 6.15506 0.182292C6.03214 0.0633571 5.86718 -0.00215609 5.69616 3.81342e-05C5.33452 3.81342e-05 5.03998 0.286401 5.03998 0.634945V1.65112H3.26617C2.3678 1.65112 1.63635 2.35885 1.63635 3.22939V16.4209C1.63635 17.2922 2.3678 18 3.26617 18H14.7338C15.6321 18 16.3636 17.2922 16.3636 16.4217V3.22939C16.3636 2.35885 15.6321 1.65112 14.7338 1.65112ZM15.052 16.1869C15.051 16.2594 15.0356 16.3311 15.0068 16.3977C14.978 16.4643 14.9363 16.5246 14.8842 16.575C14.832 16.6255 14.7704 16.6652 14.7029 16.6918C14.6354 16.7184 14.5633 16.7315 14.4908 16.7302H3.50998C3.43743 16.7315 3.36533 16.7184 3.29782 16.6918C3.23031 16.6652 3.16872 16.6255 3.11657 16.575C3.06443 16.5246 3.02276 16.4643 2.99396 16.3977C2.96515 16.3311 2.94978 16.2594 2.94871 16.1869V3.46421C2.94871 3.1623 3.20153 2.92094 3.50998 2.92094H5.03998V4.14984C5.03998 4.4992 5.33534 4.78475 5.69616 4.78475C6.05616 4.78475 6.35234 4.4992 6.35234 4.14984V2.92094H11.6443V4.14984C11.6443 4.4992 11.9397 4.78475 12.3005 4.78475C12.6605 4.78475 12.9567 4.4992 12.9567 4.14984V2.92094H14.4875C14.7992 2.92094 15.0488 3.16639 15.0488 3.46421V16.1869H15.052Z"></path> </svg>