<svg xmlns="http://www.w3.org/2000/svg" viewBox="0 0 20 20" id="feedback" width="100%" height="100%"> <path d="M17.3438 1.66016H2.65625C1.88281 1.66016 1.25 2.29297 1.25 3.06641V12.9297C1.25 13.7031 1.88281 14.3359 2.65625 14.3359H5.01172L5.00586 16.3184V16.4883C5.04687 16.8379 5.34375 17.1094 5.70312 17.1094C5.84961 17.1094 5.98438 17.0645 6.09766 16.9883L6.28516 16.8008L8.75 14.3359H17.3438C18.1172 14.3359 18.75 13.7031 18.75 12.9297V3.06641C18.75 2.29297 18.1172 1.66016 17.3438 1.66016ZM17.3438 12.9277L17.3418 12.9297H8.16797L7.75586 13.3418L6.41797 14.6797L6.41992 14.3398L6.42383 12.9297H2.66016L2.6582 12.9277V3.07031L2.66016 3.06836H17.3418L17.3438 3.07031V12.9277Z" fill="#BEBEBE"></path> <path fill="#BEBEBE" d="M4.78516 5.89844H9.31641C9.70508 5.89844 10.0195 5.58398 10.0195 5.19531C10.0195 4.80664 9.70508 4.49219 9.31641 4.49219H4.78516C4.39648 4.49219 4.08203 4.80664 4.08203 5.19531C4.08203 5.58398 4.39648 5.89844 4.78516 5.89844ZM6.79688 10.1172H4.78516C4.39648 10.1172 4.08203 10.4316 4.08203 10.8203C4.08203 11.209 4.39648 11.5234 4.78516 11.5234H6.79688C7.18555 11.5234 7.5 11.209 7.5 10.8203C7.5 10.4316 7.18555 10.1172 6.79688 10.1172ZM13.0859 7.30469H4.78516C4.39648 7.30469 4.08203 7.61914 4.08203 8.00781C4.08203 8.39648 4.39648 8.71094 4.78516 8.71094H13.0859C13.4746 8.71094 13.7891 8.39648 13.7891 8.00781C13.7891 7.61914 13.4746 7.30469 13.0859 7.30469Z"></path> </svg>